<?xml version="1.0" encoding="UTF-8" standalone="no"?>
<!-- Created with Inkscape (http://www.inkscape.org/) -->

<svg
   xmlns:dc="http://purl.org/dc/elements/1.1/"
   xmlns:cc="http://creativecommons.org/ns#"
   xmlns:rdf="http://www.w3.org/1999/02/22-rdf-syntax-ns#"
   xmlns:svg="http://www.w3.org/2000/svg"
   xmlns="http://www.w3.org/2000/svg"
   xmlns:sodipodi="http://sodipodi.sourceforge.net/DTD/sodipodi-0.dtd"
   xmlns:inkscape="http://www.inkscape.org/namespaces/inkscape"
   width="359.34436"
   height="415.0047"
   id="svg2"
   version="1.1"
   inkscape:version="0.48.4 r9939"
   sodipodi:docname="darts_pi_approx.svg">
  <defs
     id="defs4">
    <marker
       inkscape:stockid="Arrow2Lend"
       orient="auto"
       refY="0"
       refX="0"
       id="Arrow2Lend"
       style="overflow:visible">
      <path
         id="path3788"
         style="fill-rule:evenodd;stroke-width:0.625;stroke-linejoin:round"
         d="M 8.7185878,4.0337352 -2.2072895,0.01601326 8.7185884,-4.0017078 c -1.7454984,2.3720609 -1.7354408,5.6174519 -6e-7,8.035443 z"
         transform="matrix(-1.1,0,0,-1.1,-1.1,0)"
         inkscape:connector-curvature="0" />
    </marker>
  </defs>
  <sodipodi:namedview
     id="base"
     pagecolor="#ffffff"
     bordercolor="#666666"
     borderopacity="1.0"
     inkscape:pageopacity="0.0"
     inkscape:pageshadow="2"
     inkscape:zoom="0.7"
     inkscape:cx="18.683937"
     inkscape:cy="-7.4841463"
     inkscape:document-units="px"
     inkscape:current-layer="layer1"
     showgrid="false"
     inkscape:window-width="1865"
     inkscape:window-height="1056"
     inkscape:window-x="55"
     inkscape:window-y="24"
     inkscape:window-maximized="1"
     fit-margin-right="5"
     fit-margin-top="5"
     fit-margin-left="5"
     fit-margin-bottom="5" />
  <metadata
     id="metadata7">
    <rdf:RDF>
      <cc:Work
         rdf:about="">
        <dc:format>image/svg+xml</dc:format>
        <dc:type
           rdf:resource="http://purl.org/dc/dcmitype/StillImage" />
        <dc:title />
      </cc:Work>
    </rdf:RDF>
  </metadata>
  <g
     inkscape:label="Layer 1"
     inkscape:groupmode="layer"
     id="layer1"
     transform="translate(-1.7603009,-1.223254)">
    <rect
       style="fill:none;stroke:#000000;stroke-width:2;stroke-linecap:butt;stroke-linejoin:miter;stroke-miterlimit:4;stroke-opacity:1;stroke-dasharray:none;stroke-dashoffset:0"
       id="rect2985"
       width="318.99417"
       height="318.99417"
       x="26.931484"
       y="23.579382" />
    <path
       sodipodi:type="arc"
       style="fill:none;stroke:#000000;stroke-width:1.28303576;stroke-linecap:butt;stroke-linejoin:miter;stroke-miterlimit:4;stroke-opacity:1;stroke-dasharray:none;stroke-dashoffset:0"
       id="path2987"
       sodipodi:cx="270.71429"
       sodipodi:cy="244.50504"
       sodipodi:rx="102.14286"
       sodipodi:ry="102.14286"
       d="m 372.85715,244.50504 c 0,56.41194 -45.73091,102.14286 -102.14286,102.14286 -56.41194,0 -102.14286,-45.73092 -102.14286,-102.14286 0,-56.41195 45.73092,-102.14287 102.14286,-102.14287 56.41195,0 102.14286,45.73092 102.14286,102.14287 z"
       transform="matrix(1.558803,0,0,1.558803,-235.56168,-198.05872)" />
    <path
       style="fill:none;stroke:#000000;stroke-width:0.70754278px;stroke-linecap:butt;stroke-linejoin:miter;stroke-opacity:1"
       d="m 186.42857,6.5770254 0,348.7175146"
       id="path3757"
       inkscape:connector-curvature="0" />
    <path
       style="fill:none;stroke:#000000;stroke-width:0.54621631px;stroke-linecap:butt;stroke-linejoin:miter;stroke-opacity:1"
       d="m 7.0334091,183.07647 348.7981509,0"
       id="path3759"
       inkscape:connector-curvature="0" />
    <path
       style="fill:none;stroke:#000000;stroke-width:1px;stroke-linecap:butt;stroke-linejoin:miter;stroke-opacity:1;marker-end:url(#Arrow2Lend)"
       d="M 184.28572,182.36218 305.71429,78.076471"
       id="path3761"
       inkscape:connector-curvature="0" />
    <text
       xml:space="preserve"
       style="font-size:40px;font-style:normal;font-weight:normal;line-height:125%;letter-spacing:0px;word-spacing:0px;fill:#000000;fill-opacity:1;stroke:none;font-family:Sans"
       x="221.42859"
       y="112.3622"
       id="text4207"
       sodipodi:linespacing="125%"><tspan
         sodipodi:role="line"
         id="tspan4209"
         x="221.42859"
         y="112.3622">R</tspan></text>
    <path
       style="fill:none;stroke:#000000;stroke-width:1px;stroke-linecap:butt;stroke-linejoin:miter;stroke-opacity:1"
       d="m 27.142857,352.36218 0,32.85714"
       id="path4211"
       inkscape:connector-curvature="0" />
    <path
       style="fill:none;stroke:#000000;stroke-width:1px;stroke-linecap:butt;stroke-linejoin:miter;stroke-opacity:1"
       d="m 27.142857,370.93361 320.000003,0"
       id="path4213"
       inkscape:connector-curvature="0" />
    <path
       style="fill:none;stroke:#000000;stroke-width:1px;stroke-linecap:butt;stroke-linejoin:miter;stroke-opacity:1"
       d="m 347.14286,350.21932 0,32.85714"
       id="path4211-2"
       inkscape:connector-curvature="0" />
    <text
       xml:space="preserve"
       style="font-size:40px;font-style:normal;font-weight:normal;line-height:125%;letter-spacing:0px;word-spacing:0px;fill:#000000;fill-opacity:1;stroke:none;font-family:Sans"
       x="159.0025"
       y="411.22797"
       id="text4207-1"
       sodipodi:linespacing="125%"><tspan
         sodipodi:role="line"
         id="tspan4209-4"
         x="159.0025"
         y="411.22797">2R</tspan></text>
    <path
       sodipodi:type="star"
       style="fill:none;stroke:#000000;stroke-width:2;stroke-linecap:butt;stroke-linejoin:miter;stroke-miterlimit:4;stroke-opacity:1;stroke-dasharray:none;stroke-dashoffset:0"
       id="path4254"
       sodipodi:sides="5"
       sodipodi:cx="160"
       sodipodi:cy="490.93362"
       sodipodi:r1="8.689661"
       sodipodi:r2="4.3448305"
       sodipodi:arg1="0.16514868"
       sodipodi:arg2="0.79346721"
       inkscape:flatsided="false"
       inkscape:rounded="0"
       inkscape:randomized="0"
       d="m 168.57143,492.3622 -5.52406,1.66837 -1.75731,5.49642 -3.29374,-4.73814 -5.77044,0.0272 3.48841,-4.59671 -1.80903,-5.47961 5.44971,1.89721 4.6524,-3.41378 -0.12031,5.76925 z"
       inkscape:transform-center-x="-0.21196839"
       inkscape:transform-center-y="0.23472289"
       transform="matrix(0.53171384,0,0,0.53171384,36.53127,-185.61014)" />
    <path
       sodipodi:type="star"
       style="fill:none;stroke:#000000;stroke-width:2;stroke-linecap:butt;stroke-linejoin:miter;stroke-miterlimit:4;stroke-opacity:1;stroke-dasharray:none;stroke-dashoffset:0"
       id="path4254-6"
       sodipodi:sides="5"
       sodipodi:cx="160"
       sodipodi:cy="490.93362"
       sodipodi:r1="8.689661"
       sodipodi:r2="4.3448305"
       sodipodi:arg1="0.16514868"
       sodipodi:arg2="0.79346721"
       inkscape:flatsided="false"
       inkscape:rounded="0"
       inkscape:randomized="0"
       d="m 168.57143,492.3622 -5.52406,1.66837 -1.75731,5.49642 -3.29374,-4.73814 -5.77044,0.0272 3.48841,-4.59671 -1.80903,-5.47961 5.44971,1.89721 4.6524,-3.41378 -0.12031,5.76925 z"
       inkscape:transform-center-x="-0.21196839"
       inkscape:transform-center-y="0.23472289"
       transform="matrix(0.53171384,0,0,0.53171384,23.285245,-130.33732)" />
    <path
       sodipodi:type="star"
       style="fill:none;stroke:#000000;stroke-width:2;stroke-linecap:butt;stroke-linejoin:miter;stroke-miterlimit:4;stroke-opacity:1;stroke-dasharray:none;stroke-dashoffset:0"
       id="path4254-0"
       sodipodi:sides="5"
       sodipodi:cx="160"
       sodipodi:cy="490.93362"
       sodipodi:r1="8.689661"
       sodipodi:r2="4.3448305"
       sodipodi:arg1="0.16514868"
       sodipodi:arg2="0.79346721"
       inkscape:flatsided="false"
       inkscape:rounded="0"
       inkscape:randomized="0"
       d="m 168.57143,492.3622 -5.52406,1.66837 -1.75731,5.49642 -3.29374,-4.73814 -5.77044,0.0272 3.48841,-4.59671 -1.80903,-5.47961 5.44971,1.89721 4.6524,-3.41378 -0.12031,5.76925 z"
       inkscape:transform-center-x="-0.21196839"
       inkscape:transform-center-y="0.23472289"
       transform="matrix(0.53171384,0,0,0.53171384,26.142388,-56.051604)" />
    <path
       sodipodi:type="star"
       style="fill:none;stroke:#000000;stroke-width:2;stroke-linecap:butt;stroke-linejoin:miter;stroke-miterlimit:4;stroke-opacity:1;stroke-dasharray:none;stroke-dashoffset:0"
       id="path4254-9"
       sodipodi:sides="5"
       sodipodi:cx="160"
       sodipodi:cy="490.93362"
       sodipodi:r1="8.689661"
       sodipodi:r2="4.3448305"
       sodipodi:arg1="0.16514868"
       sodipodi:arg2="0.79346721"
       inkscape:flatsided="false"
       inkscape:rounded="0"
       inkscape:randomized="0"
       d="m 168.57143,492.3622 -5.52406,1.66837 -1.75731,5.49642 -3.29374,-4.73814 -5.77044,0.0272 3.48841,-4.59671 -1.80903,-5.47961 5.44971,1.89721 4.6524,-3.41378 -0.12031,5.76925 z"
       inkscape:transform-center-x="-0.21196839"
       inkscape:transform-center-y="0.23472289"
       transform="matrix(0.53171384,0,0,0.53171384,206.14239,-44.623033)" />
    <path
       sodipodi:type="star"
       style="fill:none;stroke:#000000;stroke-width:2;stroke-linecap:butt;stroke-linejoin:miter;stroke-miterlimit:4;stroke-opacity:1;stroke-dasharray:none;stroke-dashoffset:0"
       id="path4254-3"
       sodipodi:sides="5"
       sodipodi:cx="160"
       sodipodi:cy="490.93362"
       sodipodi:r1="8.689661"
       sodipodi:r2="4.3448305"
       sodipodi:arg1="0.16514868"
       sodipodi:arg2="0.79346721"
       inkscape:flatsided="false"
       inkscape:rounded="0"
       inkscape:randomized="0"
       d="m 168.57143,492.3622 -5.52406,1.66837 -1.75731,5.49642 -3.29374,-4.73814 -5.77044,0.0272 3.48841,-4.59671 -1.80903,-5.47961 5.44971,1.89721 4.6524,-3.41378 -0.12031,5.76925 z"
       inkscape:transform-center-x="-0.21196839"
       inkscape:transform-center-y="0.23472289"
       transform="matrix(0.53171384,0,0,0.53171384,171.85667,-7.4801755)" />
    <path
       sodipodi:type="star"
       style="fill:none;stroke:#000000;stroke-width:2;stroke-linecap:butt;stroke-linejoin:miter;stroke-miterlimit:4;stroke-opacity:1;stroke-dasharray:none;stroke-dashoffset:0"
       id="path4254-4"
       sodipodi:sides="5"
       sodipodi:cx="160"
       sodipodi:cy="490.93362"
       sodipodi:r1="8.689661"
       sodipodi:r2="4.3448305"
       sodipodi:arg1="0.16514868"
       sodipodi:arg2="0.79346721"
       inkscape:flatsided="false"
       inkscape:rounded="0"
       inkscape:randomized="0"
       d="m 168.57143,492.3622 -5.52406,1.66837 -1.75731,5.49642 -3.29374,-4.73814 -5.77044,0.0272 3.48841,-4.59671 -1.80903,-5.47961 5.44971,1.89721 4.6524,-3.41378 -0.12031,5.76925 z"
       inkscape:transform-center-x="-0.21196839"
       inkscape:transform-center-y="0.23472289"
       transform="matrix(0.53171384,0,0,0.53171384,110.4281,15.376967)" />
    <path
       sodipodi:type="star"
       style="fill:none;stroke:#000000;stroke-width:2;stroke-linecap:butt;stroke-linejoin:miter;stroke-miterlimit:4;stroke-opacity:1;stroke-dasharray:none;stroke-dashoffset:0"
       id="path4254-07"
       sodipodi:sides="5"
       sodipodi:cx="160"
       sodipodi:cy="490.93362"
       sodipodi:r1="8.689661"
       sodipodi:r2="4.3448305"
       sodipodi:arg1="0.16514868"
       sodipodi:arg2="0.79346721"
       inkscape:flatsided="false"
       inkscape:rounded="0"
       inkscape:randomized="0"
       d="m 168.57143,492.3622 -5.52406,1.66837 -1.75731,5.49642 -3.29374,-4.73814 -5.77044,0.0272 3.48841,-4.59671 -1.80903,-5.47961 5.44971,1.89721 4.6524,-3.41378 -0.12031,5.76925 z"
       inkscape:transform-center-x="-0.21196839"
       inkscape:transform-center-y="0.23472289"
       transform="matrix(0.53171384,0,0,0.53171384,56.142388,8.2341102)" />
    <path
       sodipodi:type="star"
       style="fill:none;stroke:#000000;stroke-width:2;stroke-linecap:butt;stroke-linejoin:miter;stroke-miterlimit:4;stroke-opacity:1;stroke-dasharray:none;stroke-dashoffset:0"
       id="path4254-93"
       sodipodi:sides="5"
       sodipodi:cx="160"
       sodipodi:cy="490.93362"
       sodipodi:r1="8.689661"
       sodipodi:r2="4.3448305"
       sodipodi:arg1="0.16514868"
       sodipodi:arg2="0.79346721"
       inkscape:flatsided="false"
       inkscape:rounded="0"
       inkscape:randomized="0"
       d="m 168.57143,492.3622 -5.52406,1.66837 -1.75731,5.49642 -3.29374,-4.73814 -5.77044,0.0272 3.48841,-4.59671 -1.80903,-5.47961 5.44971,1.89721 4.6524,-3.41378 -0.12031,5.76925 z"
       inkscape:transform-center-x="-0.21196839"
       inkscape:transform-center-y="0.23472289"
       transform="matrix(0.53171384,0,0,0.53171384,51.856674,-26.051604)" />
    <path
       sodipodi:type="star"
       style="fill:none;stroke:#000000;stroke-width:2;stroke-linecap:butt;stroke-linejoin:miter;stroke-miterlimit:4;stroke-opacity:1;stroke-dasharray:none;stroke-dashoffset:0"
       id="path4254-1"
       sodipodi:sides="5"
       sodipodi:cx="160"
       sodipodi:cy="490.93362"
       sodipodi:r1="8.689661"
       sodipodi:r2="4.3448305"
       sodipodi:arg1="0.16514868"
       sodipodi:arg2="0.79346721"
       inkscape:flatsided="false"
       inkscape:rounded="0"
       inkscape:randomized="0"
       d="m 168.57143,492.3622 -5.52406,1.66837 -1.75731,5.49642 -3.29374,-4.73814 -5.77044,0.0272 3.48841,-4.59671 -1.80903,-5.47961 5.44971,1.89721 4.6524,-3.41378 -0.12031,5.76925 z"
       inkscape:transform-center-x="-0.21196839"
       inkscape:transform-center-y="0.23472289"
       transform="matrix(0.53171384,0,0,0.53171384,114.71382,-41.76589)" />
    <path
       sodipodi:type="star"
       style="fill:none;stroke:#000000;stroke-width:2;stroke-linecap:butt;stroke-linejoin:miter;stroke-miterlimit:4;stroke-opacity:1;stroke-dasharray:none;stroke-dashoffset:0"
       id="path4254-17"
       sodipodi:sides="5"
       sodipodi:cx="160"
       sodipodi:cy="490.93362"
       sodipodi:r1="8.689661"
       sodipodi:r2="4.3448305"
       sodipodi:arg1="0.16514868"
       sodipodi:arg2="0.79346721"
       inkscape:flatsided="false"
       inkscape:rounded="0"
       inkscape:randomized="0"
       d="m 168.57143,492.3622 -5.52406,1.66837 -1.75731,5.49642 -3.29374,-4.73814 -5.77044,0.0272 3.48841,-4.59671 -1.80903,-5.47961 5.44971,1.89721 4.6524,-3.41378 -0.12031,5.76925 z"
       inkscape:transform-center-x="-0.21196839"
       inkscape:transform-center-y="0.23472289"
       transform="matrix(0.53171384,0,0,0.53171384,220.4281,-157.48018)" />
    <path
       sodipodi:type="star"
       style="fill:none;stroke:#000000;stroke-width:2;stroke-linecap:butt;stroke-linejoin:miter;stroke-miterlimit:4;stroke-opacity:1;stroke-dasharray:none;stroke-dashoffset:0"
       id="path4254-8"
       sodipodi:sides="5"
       sodipodi:cx="160"
       sodipodi:cy="490.93362"
       sodipodi:r1="8.689661"
       sodipodi:r2="4.3448305"
       sodipodi:arg1="0.16514868"
       sodipodi:arg2="0.79346721"
       inkscape:flatsided="false"
       inkscape:rounded="0"
       inkscape:randomized="0"
       d="m 168.57143,492.3622 -5.52406,1.66837 -1.75731,5.49642 -3.29374,-4.73814 -5.77044,0.0272 3.48841,-4.59671 -1.80903,-5.47961 5.44971,1.89721 4.6524,-3.41378 -0.12031,5.76925 z"
       inkscape:transform-center-x="-0.21196839"
       inkscape:transform-center-y="0.23472289"
       transform="matrix(0.53171384,0,0,0.53171384,234.71382,-204.62303)" />
    <path
       sodipodi:type="star"
       style="fill:none;stroke:#000000;stroke-width:2;stroke-linecap:butt;stroke-linejoin:miter;stroke-miterlimit:4;stroke-opacity:1;stroke-dasharray:none;stroke-dashoffset:0"
       id="path4254-85"
       sodipodi:sides="5"
       sodipodi:cx="160"
       sodipodi:cy="490.93362"
       sodipodi:r1="8.689661"
       sodipodi:r2="4.3448305"
       sodipodi:arg1="0.16514868"
       sodipodi:arg2="0.79346721"
       inkscape:flatsided="false"
       inkscape:rounded="0"
       inkscape:randomized="0"
       d="m 168.57143,492.3622 -5.52406,1.66837 -1.75731,5.49642 -3.29374,-4.73814 -5.77044,0.0272 3.48841,-4.59671 -1.80903,-5.47961 5.44971,1.89721 4.6524,-3.41378 -0.12031,5.76925 z"
       inkscape:transform-center-x="-0.21196839"
       inkscape:transform-center-y="0.23472289"
       transform="matrix(0.53171384,0,0,0.53171384,-16.714755,-207.48018)" />
    <path
       sodipodi:type="star"
       style="fill:none;stroke:#000000;stroke-width:2;stroke-linecap:butt;stroke-linejoin:miter;stroke-miterlimit:4;stroke-opacity:1;stroke-dasharray:none;stroke-dashoffset:0"
       id="path4254-13"
       sodipodi:sides="5"
       sodipodi:cx="160"
       sodipodi:cy="490.93362"
       sodipodi:r1="8.689661"
       sodipodi:r2="4.3448305"
       sodipodi:arg1="0.16514868"
       sodipodi:arg2="0.79346721"
       inkscape:flatsided="false"
       inkscape:rounded="0"
       inkscape:randomized="0"
       d="m 168.57143,492.3622 -5.52406,1.66837 -1.75731,5.49642 -3.29374,-4.73814 -5.77044,0.0272 3.48841,-4.59671 -1.80903,-5.47961 5.44971,1.89721 4.6524,-3.41378 -0.12031,5.76925 z"
       inkscape:transform-center-x="-0.21196839"
       inkscape:transform-center-y="0.23472289"
       transform="matrix(0.53171384,0,0,0.53171384,-33.857612,-28.908747)" />
    <path
       sodipodi:type="star"
       style="fill:none;stroke:#000000;stroke-width:2;stroke-linecap:butt;stroke-linejoin:miter;stroke-miterlimit:4;stroke-opacity:1;stroke-dasharray:none;stroke-dashoffset:0"
       id="path4254-38"
       sodipodi:sides="5"
       sodipodi:cx="160"
       sodipodi:cy="490.93362"
       sodipodi:r1="8.689661"
       sodipodi:r2="4.3448305"
       sodipodi:arg1="0.16514868"
       sodipodi:arg2="0.79346721"
       inkscape:flatsided="false"
       inkscape:rounded="0"
       inkscape:randomized="0"
       d="m 168.57143,492.3622 -5.52406,1.66837 -1.75731,5.49642 -3.29374,-4.73814 -5.77044,0.0272 3.48841,-4.59671 -1.80903,-5.47961 5.44971,1.89721 4.6524,-3.41378 -0.12031,5.76925 z"
       inkscape:transform-center-x="-0.21196839"
       inkscape:transform-center-y="0.23472289"
       transform="matrix(0.53171384,0,0,0.53171384,-28.143326,35.376967)" />
    <path
       sodipodi:type="star"
       style="fill:none;stroke:#000000;stroke-width:2;stroke-linecap:butt;stroke-linejoin:miter;stroke-miterlimit:4;stroke-opacity:1;stroke-dasharray:none;stroke-dashoffset:0"
       id="path4254-10"
       sodipodi:sides="5"
       sodipodi:cx="160"
       sodipodi:cy="490.93362"
       sodipodi:r1="8.689661"
       sodipodi:r2="4.3448305"
       sodipodi:arg1="0.16514868"
       sodipodi:arg2="0.79346721"
       inkscape:flatsided="false"
       inkscape:rounded="0"
       inkscape:randomized="0"
       d="m 168.57143,492.3622 -5.52406,1.66837 -1.75731,5.49642 -3.29374,-4.73814 -5.77044,0.0272 3.48841,-4.59671 -1.80903,-5.47961 5.44971,1.89721 4.6524,-3.41378 -0.12031,5.76925 z"
       inkscape:transform-center-x="-0.21196839"
       inkscape:transform-center-y="0.23472289"
       transform="matrix(0.53171384,0,0,0.53171384,206.14239,56.805539)" />
    <path
       sodipodi:type="star"
       style="fill:none;stroke:#000000;stroke-width:2;stroke-linecap:butt;stroke-linejoin:miter;stroke-miterlimit:4;stroke-opacity:1;stroke-dasharray:none;stroke-dashoffset:0"
       id="path4254-15"
       sodipodi:sides="5"
       sodipodi:cx="160"
       sodipodi:cy="490.93362"
       sodipodi:r1="8.689661"
       sodipodi:r2="4.3448305"
       sodipodi:arg1="0.16514868"
       sodipodi:arg2="0.79346721"
       inkscape:flatsided="false"
       inkscape:rounded="0"
       inkscape:randomized="0"
       d="m 168.57143,492.3622 -5.52406,1.66837 -1.75731,5.49642 -3.29374,-4.73814 -5.77044,0.0272 3.48841,-4.59671 -1.80903,-5.47961 5.44971,1.89721 4.6524,-3.41378 -0.12031,5.76925 z"
       inkscape:transform-center-x="-0.21196839"
       inkscape:transform-center-y="0.23472289"
       transform="matrix(0.53171384,0,0,0.53171384,236.14239,-33.194461)" />
    <path
       sodipodi:type="star"
       style="fill:none;stroke:#000000;stroke-width:2;stroke-linecap:butt;stroke-linejoin:miter;stroke-miterlimit:4;stroke-opacity:1;stroke-dasharray:none;stroke-dashoffset:0"
       id="path4254-11"
       sodipodi:sides="5"
       sodipodi:cx="160"
       sodipodi:cy="490.93362"
       sodipodi:r1="8.689661"
       sodipodi:r2="4.3448305"
       sodipodi:arg1="0.16514868"
       sodipodi:arg2="0.79346721"
       inkscape:flatsided="false"
       inkscape:rounded="0"
       inkscape:randomized="0"
       d="m 168.57143,492.3622 -5.52406,1.66837 -1.75731,5.49642 -3.29374,-4.73814 -5.77044,0.0272 3.48841,-4.59671 -1.80903,-5.47961 5.44971,1.89721 4.6524,-3.41378 -0.12031,5.76925 z"
       inkscape:transform-center-x="-0.21196839"
       inkscape:transform-center-y="0.23472289"
       transform="matrix(0.53171384,0,0,0.53171384,118.99953,-114.62303)" />
    <path
       sodipodi:type="star"
       style="fill:none;stroke:#000000;stroke-width:2;stroke-linecap:butt;stroke-linejoin:miter;stroke-miterlimit:4;stroke-opacity:1;stroke-dasharray:none;stroke-dashoffset:0"
       id="path4254-30"
       sodipodi:sides="5"
       sodipodi:cx="160"
       sodipodi:cy="490.93362"
       sodipodi:r1="8.689661"
       sodipodi:r2="4.3448305"
       sodipodi:arg1="0.16514868"
       sodipodi:arg2="0.79346721"
       inkscape:flatsided="false"
       inkscape:rounded="0"
       inkscape:randomized="0"
       d="m 168.57143,492.3622 -5.52406,1.66837 -1.75731,5.49642 -3.29374,-4.73814 -5.77044,0.0272 3.48841,-4.59671 -1.80903,-5.47961 5.44971,1.89721 4.6524,-3.41378 -0.12031,5.76925 z"
       inkscape:transform-center-x="-0.21196839"
       inkscape:transform-center-y="0.23472289"
       transform="matrix(0.53171384,0,0,0.53171384,76.142388,-164.62303)" />
    <path
       sodipodi:type="star"
       style="fill:none;stroke:#000000;stroke-width:2;stroke-linecap:butt;stroke-linejoin:miter;stroke-miterlimit:4;stroke-opacity:1;stroke-dasharray:none;stroke-dashoffset:0"
       id="path4254-33"
       sodipodi:sides="5"
       sodipodi:cx="160"
       sodipodi:cy="490.93362"
       sodipodi:r1="8.689661"
       sodipodi:r2="4.3448305"
       sodipodi:arg1="0.16514868"
       sodipodi:arg2="0.79346721"
       inkscape:flatsided="false"
       inkscape:rounded="0"
       inkscape:randomized="0"
       d="m 168.57143,492.3622 -5.52406,1.66837 -1.75731,5.49642 -3.29374,-4.73814 -5.77044,0.0272 3.48841,-4.59671 -1.80903,-5.47961 5.44971,1.89721 4.6524,-3.41378 -0.12031,5.76925 z"
       inkscape:transform-center-x="-0.21196839"
       inkscape:transform-center-y="0.23472289"
       transform="matrix(0.53171384,0,0,0.53171384,-16.714755,-123.19446)" />
    <path
       sodipodi:type="star"
       style="fill:none;stroke:#000000;stroke-width:2;stroke-linecap:butt;stroke-linejoin:miter;stroke-miterlimit:4;stroke-opacity:1;stroke-dasharray:none;stroke-dashoffset:0"
       id="path4254-49"
       sodipodi:sides="5"
       sodipodi:cx="160"
       sodipodi:cy="490.93362"
       sodipodi:r1="8.689661"
       sodipodi:r2="4.3448305"
       sodipodi:arg1="0.16514868"
       sodipodi:arg2="0.79346721"
       inkscape:flatsided="false"
       inkscape:rounded="0"
       inkscape:randomized="0"
       d="m 168.57143,492.3622 -5.52406,1.66837 -1.75731,5.49642 -3.29374,-4.73814 -5.77044,0.0272 3.48841,-4.59671 -1.80903,-5.47961 5.44971,1.89721 4.6524,-3.41378 -0.12031,5.76925 z"
       inkscape:transform-center-x="-0.21196839"
       inkscape:transform-center-y="0.23472289"
       transform="matrix(0.53171384,0,0,0.53171384,-2.4290403,53.948396)" />
    <path
       sodipodi:type="star"
       style="fill:none;stroke:#000000;stroke-width:2;stroke-linecap:butt;stroke-linejoin:miter;stroke-miterlimit:4;stroke-opacity:1;stroke-dasharray:none;stroke-dashoffset:0"
       id="path4254-32"
       sodipodi:sides="5"
       sodipodi:cx="160"
       sodipodi:cy="490.93362"
       sodipodi:r1="8.689661"
       sodipodi:r2="4.3448305"
       sodipodi:arg1="0.16514868"
       sodipodi:arg2="0.79346721"
       inkscape:flatsided="false"
       inkscape:rounded="0"
       inkscape:randomized="0"
       d="m 168.57143,492.3622 -5.52406,1.66837 -1.75731,5.49642 -3.29374,-4.73814 -5.77044,0.0272 3.48841,-4.59671 -1.80903,-5.47961 5.44971,1.89721 4.6524,-3.41378 -0.12031,5.76925 z"
       inkscape:transform-center-x="-0.21196839"
       inkscape:transform-center-y="0.23472289"
       transform="matrix(0.53171384,0,0,0.53171384,44.713817,49.662682)" />
    <path
       sodipodi:type="star"
       style="fill:none;stroke:#000000;stroke-width:2;stroke-linecap:butt;stroke-linejoin:miter;stroke-miterlimit:4;stroke-opacity:1;stroke-dasharray:none;stroke-dashoffset:0"
       id="path4254-306"
       sodipodi:sides="5"
       sodipodi:cx="160"
       sodipodi:cy="490.93362"
       sodipodi:r1="8.689661"
       sodipodi:r2="4.3448305"
       sodipodi:arg1="0.16514868"
       sodipodi:arg2="0.79346721"
       inkscape:flatsided="false"
       inkscape:rounded="0"
       inkscape:randomized="0"
       d="m 168.57143,492.3622 -5.52406,1.66837 -1.75731,5.49642 -3.29374,-4.73814 -5.77044,0.0272 3.48841,-4.59671 -1.80903,-5.47961 5.44971,1.89721 4.6524,-3.41378 -0.12031,5.76925 z"
       inkscape:transform-center-x="-0.21196839"
       inkscape:transform-center-y="0.23472289"
       transform="matrix(0.53171384,0,0,0.53171384,10.428103,-47.480176)" />
    <path
       sodipodi:type="star"
       style="fill:none;stroke:#000000;stroke-width:2;stroke-linecap:butt;stroke-linejoin:miter;stroke-miterlimit:4;stroke-opacity:1;stroke-dasharray:none;stroke-dashoffset:0"
       id="path4254-19"
       sodipodi:sides="5"
       sodipodi:cx="160"
       sodipodi:cy="490.93362"
       sodipodi:r1="8.689661"
       sodipodi:r2="4.3448305"
       sodipodi:arg1="0.16514868"
       sodipodi:arg2="0.79346721"
       inkscape:flatsided="false"
       inkscape:rounded="0"
       inkscape:randomized="0"
       d="m 168.57143,492.3622 -5.52406,1.66837 -1.75731,5.49642 -3.29374,-4.73814 -5.77044,0.0272 3.48841,-4.59671 -1.80903,-5.47961 5.44971,1.89721 4.6524,-3.41378 -0.12031,5.76925 z"
       inkscape:transform-center-x="-0.21196839"
       inkscape:transform-center-y="0.23472289"
       transform="matrix(0.53171384,0,0,0.53171384,60.428103,-88.908747)" />
    <path
       sodipodi:type="star"
       style="fill:none;stroke:#000000;stroke-width:2;stroke-linecap:butt;stroke-linejoin:miter;stroke-miterlimit:4;stroke-opacity:1;stroke-dasharray:none;stroke-dashoffset:0"
       id="path4254-69"
       sodipodi:sides="5"
       sodipodi:cx="160"
       sodipodi:cy="490.93362"
       sodipodi:r1="8.689661"
       sodipodi:r2="4.3448305"
       sodipodi:arg1="0.16514868"
       sodipodi:arg2="0.79346721"
       inkscape:flatsided="false"
       inkscape:rounded="0"
       inkscape:randomized="0"
       d="m 168.57143,492.3622 -5.52406,1.66837 -1.75731,5.49642 -3.29374,-4.73814 -5.77044,0.0272 3.48841,-4.59671 -1.80903,-5.47961 5.44971,1.89721 4.6524,-3.41378 -0.12031,5.76925 z"
       inkscape:transform-center-x="-0.21196839"
       inkscape:transform-center-y="0.23472289"
       transform="matrix(0.53171384,0,0,0.53171384,201.85667,-91.76589)" />
    <path
       sodipodi:type="star"
       style="fill:none;stroke:#000000;stroke-width:2;stroke-linecap:butt;stroke-linejoin:miter;stroke-miterlimit:4;stroke-opacity:1;stroke-dasharray:none;stroke-dashoffset:0"
       id="path4254-89"
       sodipodi:sides="5"
       sodipodi:cx="160"
       sodipodi:cy="490.93362"
       sodipodi:r1="8.689661"
       sodipodi:r2="4.3448305"
       sodipodi:arg1="0.16514868"
       sodipodi:arg2="0.79346721"
       inkscape:flatsided="false"
       inkscape:rounded="0"
       inkscape:randomized="0"
       d="m 168.57143,492.3622 -5.52406,1.66837 -1.75731,5.49642 -3.29374,-4.73814 -5.77044,0.0272 3.48841,-4.59671 -1.80903,-5.47961 5.44971,1.89721 4.6524,-3.41378 -0.12031,5.76925 z"
       inkscape:transform-center-x="-0.21196839"
       inkscape:transform-center-y="0.23472289"
       transform="matrix(0.53171384,0,0,0.53171384,158.99953,48.23411)" />
    <path
       sodipodi:type="star"
       style="fill:none;stroke:#000000;stroke-width:2;stroke-linecap:butt;stroke-linejoin:miter;stroke-miterlimit:4;stroke-opacity:1;stroke-dasharray:none;stroke-dashoffset:0"
       id="path4254-14"
       sodipodi:sides="5"
       sodipodi:cx="160"
       sodipodi:cy="490.93362"
       sodipodi:r1="8.689661"
       sodipodi:r2="4.3448305"
       sodipodi:arg1="0.16514868"
       sodipodi:arg2="0.79346721"
       inkscape:flatsided="false"
       inkscape:rounded="0"
       inkscape:randomized="0"
       d="m 168.57143,492.3622 -5.52406,1.66837 -1.75731,5.49642 -3.29374,-4.73814 -5.77044,0.0272 3.48841,-4.59671 -1.80903,-5.47961 5.44971,1.89721 4.6524,-3.41378 -0.12031,5.76925 z"
       inkscape:transform-center-x="-0.21196839"
       inkscape:transform-center-y="0.23472289"
       transform="matrix(0.53171384,0,0,0.53171384,184.71382,-203.19446)" />
    <path
       sodipodi:type="star"
       style="fill:none;stroke:#000000;stroke-width:2;stroke-linecap:butt;stroke-linejoin:miter;stroke-miterlimit:4;stroke-opacity:1;stroke-dasharray:none;stroke-dashoffset:0"
       id="path4254-48"
       sodipodi:sides="5"
       sodipodi:cx="160"
       sodipodi:cy="490.93362"
       sodipodi:r1="8.689661"
       sodipodi:r2="4.3448305"
       sodipodi:arg1="0.16514868"
       sodipodi:arg2="0.79346721"
       inkscape:flatsided="false"
       inkscape:rounded="0"
       inkscape:randomized="0"
       d="m 168.57143,492.3622 -5.52406,1.66837 -1.75731,5.49642 -3.29374,-4.73814 -5.77044,0.0272 3.48841,-4.59671 -1.80903,-5.47961 5.44971,1.89721 4.6524,-3.41378 -0.12031,5.76925 z"
       inkscape:transform-center-x="-0.21196839"
       inkscape:transform-center-y="0.23472289"
       transform="matrix(0.53171384,0,0,0.53171384,0.42810258,-223.19446)" />
    <path
       sodipodi:type="star"
       style="fill:none;stroke:#000000;stroke-width:2;stroke-linecap:butt;stroke-linejoin:miter;stroke-miterlimit:4;stroke-opacity:1;stroke-dasharray:none;stroke-dashoffset:0"
       id="path4254-98"
       sodipodi:sides="5"
       sodipodi:cx="160"
       sodipodi:cy="490.93362"
       sodipodi:r1="8.689661"
       sodipodi:r2="4.3448305"
       sodipodi:arg1="0.16514868"
       sodipodi:arg2="0.79346721"
       inkscape:flatsided="false"
       inkscape:rounded="0"
       inkscape:randomized="0"
       d="m 168.57143,492.3622 -5.52406,1.66837 -1.75731,5.49642 -3.29374,-4.73814 -5.77044,0.0272 3.48841,-4.59671 -1.80903,-5.47961 5.44971,1.89721 4.6524,-3.41378 -0.12031,5.76925 z"
       inkscape:transform-center-x="-0.21196839"
       inkscape:transform-center-y="0.23472289"
       transform="matrix(0.53171384,0,0,0.53171384,230.4281,31.091253)" />
    <path
       sodipodi:type="star"
       style="fill:none;stroke:#000000;stroke-width:2;stroke-linecap:butt;stroke-linejoin:miter;stroke-miterlimit:4;stroke-opacity:1;stroke-dasharray:none;stroke-dashoffset:0"
       id="path4254-2"
       sodipodi:sides="5"
       sodipodi:cx="160"
       sodipodi:cy="490.93362"
       sodipodi:r1="8.689661"
       sodipodi:r2="4.3448305"
       sodipodi:arg1="0.16514868"
       sodipodi:arg2="0.79346721"
       inkscape:flatsided="false"
       inkscape:rounded="0"
       inkscape:randomized="0"
       d="m 168.57143,492.3622 -5.52406,1.66837 -1.75731,5.49642 -3.29374,-4.73814 -5.77044,0.0272 3.48841,-4.59671 -1.80903,-5.47961 5.44971,1.89721 4.6524,-3.41378 -0.12031,5.76925 z"
       inkscape:transform-center-x="-0.21196839"
       inkscape:transform-center-y="0.23472289"
       transform="matrix(0.53171384,0,0,0.53171384,173.28525,-60.337318)" />
    <path
       sodipodi:type="star"
       style="fill:none;stroke:#000000;stroke-width:2;stroke-linecap:butt;stroke-linejoin:miter;stroke-miterlimit:4;stroke-opacity:1;stroke-dasharray:none;stroke-dashoffset:0"
       id="path4254-383"
       sodipodi:sides="5"
       sodipodi:cx="160"
       sodipodi:cy="490.93362"
       sodipodi:r1="8.689661"
       sodipodi:r2="4.3448305"
       sodipodi:arg1="0.16514868"
       sodipodi:arg2="0.79346721"
       inkscape:flatsided="false"
       inkscape:rounded="0"
       inkscape:randomized="0"
       d="m 168.57143,492.3622 -5.52406,1.66837 -1.75731,5.49642 -3.29374,-4.73814 -5.77044,0.0272 3.48841,-4.59671 -1.80903,-5.47961 5.44971,1.89721 4.6524,-3.41378 -0.12031,5.76925 z"
       inkscape:transform-center-x="-0.21196839"
       inkscape:transform-center-y="0.23472289"
       transform="matrix(0.53171384,0,0,0.53171384,184.71382,-110.33732)" />
    <path
       sodipodi:type="star"
       style="fill:none;stroke:#000000;stroke-width:2;stroke-linecap:butt;stroke-linejoin:miter;stroke-miterlimit:4;stroke-opacity:1;stroke-dasharray:none;stroke-dashoffset:0"
       id="path4254-35"
       sodipodi:sides="5"
       sodipodi:cx="160"
       sodipodi:cy="490.93362"
       sodipodi:r1="8.689661"
       sodipodi:r2="4.3448305"
       sodipodi:arg1="0.16514868"
       sodipodi:arg2="0.79346721"
       inkscape:flatsided="false"
       inkscape:rounded="0"
       inkscape:randomized="0"
       d="m 168.57143,492.3622 -5.52406,1.66837 -1.75731,5.49642 -3.29374,-4.73814 -5.77044,0.0272 3.48841,-4.59671 -1.80903,-5.47961 5.44971,1.89721 4.6524,-3.41378 -0.12031,5.76925 z"
       inkscape:transform-center-x="-0.21196839"
       inkscape:transform-center-y="0.23472289"
       transform="matrix(0.53171384,0,0,0.53171384,131.85667,-208.90875)" />
    <path
       sodipodi:type="star"
       style="fill:none;stroke:#000000;stroke-width:2;stroke-linecap:butt;stroke-linejoin:miter;stroke-miterlimit:4;stroke-opacity:1;stroke-dasharray:none;stroke-dashoffset:0"
       id="path4254-67"
       sodipodi:sides="5"
       sodipodi:cx="160"
       sodipodi:cy="490.93362"
       sodipodi:r1="8.689661"
       sodipodi:r2="4.3448305"
       sodipodi:arg1="0.16514868"
       sodipodi:arg2="0.79346721"
       inkscape:flatsided="false"
       inkscape:rounded="0"
       inkscape:randomized="0"
       d="m 168.57143,492.3622 -5.52406,1.66837 -1.75731,5.49642 -3.29374,-4.73814 -5.77044,0.0272 3.48841,-4.59671 -1.80903,-5.47961 5.44971,1.89721 4.6524,-3.41378 -0.12031,5.76925 z"
       inkscape:transform-center-x="-0.21196839"
       inkscape:transform-center-y="0.23472289"
       transform="matrix(0.53171384,0,0,0.53171384,-8.143326,-161.76589)" />
  </g>
</svg>
