<?xml version="1.0" encoding="UTF-8" standalone="no"?>
<!-- Created with Inkscape (http://www.inkscape.org/) -->

<svg
   xmlns:dc="http://purl.org/dc/elements/1.1/"
   xmlns:cc="http://creativecommons.org/ns#"
   xmlns:rdf="http://www.w3.org/1999/02/22-rdf-syntax-ns#"
   xmlns:svg="http://www.w3.org/2000/svg"
   xmlns="http://www.w3.org/2000/svg"
   xmlns:sodipodi="http://sodipodi.sourceforge.net/DTD/sodipodi-0.dtd"
   xmlns:inkscape="http://www.inkscape.org/namespaces/inkscape"
   id="svg2"
   version="1.1"
   inkscape:version="0.91 r13725"
   xml:space="preserve"
   width="296.25"
   height="183.75"
   viewBox="0 0 296.25 183.75"
   sodipodi:docname="fourbar.svg"><metadata
     id="metadata8"><rdf:RDF><cc:Work
         rdf:about=""><dc:format>image/svg+xml</dc:format><dc:type
           rdf:resource="http://purl.org/dc/dcmitype/StillImage" /><dc:title></dc:title></cc:Work></rdf:RDF></metadata><defs
     id="defs6"><clipPath
       clipPathUnits="userSpaceOnUse"
       id="clipPath46"><path
         d="M 0,1470 0,0 l 2370,0 0,1470 -2370,0 z m 45.2148,-1031.898 0,89.445 -37.79292,0 0,-89.445 0,0 18.89842,70.546 18.8945,-70.546 z"
         id="path48"
         inkscape:connector-curvature="0"
         style="clip-rule:evenodd" /></clipPath><clipPath
       clipPathUnits="userSpaceOnUse"
       id="clipPath60"><path
         d="M 0,1470 0,0 l 2370,0 0,1470 -2370,0 z m 229.148,-1254.254 90.075,0 0,37.793 -90.075,0 0,0 71.176,-18.894 -71.176,-18.899 z"
         id="path62"
         inkscape:connector-curvature="0"
         style="clip-rule:evenodd" /></clipPath><clipPath
       clipPathUnits="userSpaceOnUse"
       id="clipPath110"><path
         d="M 0,1470 0,0 l 2370,0 0,1470 -2370,0 z m 711.648,-861.195 -92.593,22.047 -8.817,-36.536 92.594,-22.046 0,0 -68.66,35.273 77.476,1.262 z"
         id="path112"
         inkscape:connector-curvature="0"
         style="clip-rule:evenodd" /></clipPath><clipPath
       clipPathUnits="userSpaceOnUse"
       id="clipPath124"><path
         d="M 0,1470 0,0 l 2370,0 0,1470 -2370,0 z m 1979.01,-885.133 -95.12,5.668 -1.89,-37.793 95.12,-5.668 0,0 -74.33,23.305 76.22,14.488 z"
         id="path126"
         inkscape:connector-curvature="0"
         style="clip-rule:evenodd" /></clipPath><clipPath
       clipPathUnits="userSpaceOnUse"
       id="clipPath138"><path
         d="M 0,1470 0,0 l 2370,0 0,1470 -2370,0 z m 1694.93,-196.02 -74.97,58.58 -23.3,-29.61 74.96,-58.58 0,0 -47.24,61.1 70.55,-31.49 z"
         id="path140"
         inkscape:connector-curvature="0"
         style="clip-rule:evenodd" /></clipPath></defs><sodipodi:namedview
     pagecolor="#ffffff"
     bordercolor="#666666"
     borderopacity="1"
     objecttolerance="10"
     gridtolerance="10"
     guidetolerance="10"
     inkscape:pageopacity="0"
     inkscape:pageshadow="2"
     inkscape:window-width="1865"
     inkscape:window-height="1028"
     id="namedview4"
     showgrid="false"
     inkscape:zoom="3.2365799"
     inkscape:cx="119.2635"
     inkscape:cy="97.749945"
     inkscape:window-x="1415"
     inkscape:window-y="24"
     inkscape:window-maximized="0"
     inkscape:current-layer="g10" /><g
     id="g10"
     inkscape:groupmode="layer"
     inkscape:label="fourbar"
     transform="matrix(1.25,0,0,-1.25,0,183.75)"><g
       id="g12"
       transform="scale(0.1,0.1)"><path
         d="m 434.496,186.141 -49.133,-85.036 98.262,0 -49.129,85.036 z"
         style="fill:none;stroke:#000000;stroke-width:4.72424984;stroke-linecap:butt;stroke-linejoin:miter;stroke-miterlimit:10;stroke-dasharray:none;stroke-opacity:1"
         id="path14"
         inkscape:connector-curvature="0" /><path
         d="m 377.805,72.7578 113.379,0"
         style="fill:none;stroke:#000000;stroke-width:4.72424984;stroke-linecap:butt;stroke-linejoin:miter;stroke-miterlimit:10;stroke-dasharray:none;stroke-opacity:1"
         id="path16"
         inkscape:connector-curvature="0" /><path
         d="m 1965.15,176.691 -49.13,-85.0348 98.27,0 -49.14,85.0348 z"
         style="fill:none;stroke:#000000;stroke-width:4.72424984;stroke-linecap:butt;stroke-linejoin:miter;stroke-miterlimit:10;stroke-dasharray:none;stroke-opacity:1"
         id="path18"
         inkscape:connector-curvature="0" /><path
         d="m 1908.46,63.3086 113.38,0"
         style="fill:none;stroke:#000000;stroke-width:4.72424984;stroke-linecap:butt;stroke-linejoin:miter;stroke-miterlimit:10;stroke-dasharray:none;stroke-opacity:1"
         id="path20"
         inkscape:connector-curvature="0" /><path
         d="m 547.875,73.3906 -226.762,0"
         style="fill:none;stroke:#000000;stroke-width:4.72424984;stroke-linecap:butt;stroke-linejoin:miter;stroke-miterlimit:10;stroke-dasharray:none;stroke-opacity:1"
         id="path22"
         inkscape:connector-curvature="0" /><path
         d="M 547.875,73.3906 491.184,16.6992"
         style="fill:none;stroke:#000000;stroke-width:4.72424984;stroke-linecap:butt;stroke-linejoin:miter;stroke-miterlimit:10;stroke-dasharray:none;stroke-opacity:1"
         id="path24"
         inkscape:connector-curvature="0" /><path
         d="M 491.184,73.3906 434.496,16.6992"
         style="fill:none;stroke:#000000;stroke-width:4.72424984;stroke-linecap:butt;stroke-linejoin:miter;stroke-miterlimit:10;stroke-dasharray:none;stroke-opacity:1"
         id="path26"
         inkscape:connector-curvature="0" /><path
         d="M 434.496,73.3906 377.805,16.6992"
         style="fill:none;stroke:#000000;stroke-width:4.72424984;stroke-linecap:butt;stroke-linejoin:miter;stroke-miterlimit:10;stroke-dasharray:none;stroke-opacity:1"
         id="path28"
         inkscape:connector-curvature="0" /><path
         d="M 377.805,73.3906 321.113,16.6992"
         style="fill:none;stroke:#000000;stroke-width:4.72424984;stroke-linecap:butt;stroke-linejoin:miter;stroke-miterlimit:10;stroke-dasharray:none;stroke-opacity:1"
         id="path30"
         inkscape:connector-curvature="0" /><path
         d="m 2076.64,64.5703 -226.76,0"
         style="fill:none;stroke:#000000;stroke-width:4.72424984;stroke-linecap:butt;stroke-linejoin:miter;stroke-miterlimit:10;stroke-dasharray:none;stroke-opacity:1"
         id="path32"
         inkscape:connector-curvature="0" /><path
         d="M 2076.64,64.5703 2019.95,7.87891"
         style="fill:none;stroke:#000000;stroke-width:4.72424984;stroke-linecap:butt;stroke-linejoin:miter;stroke-miterlimit:10;stroke-dasharray:none;stroke-opacity:1"
         id="path34"
         inkscape:connector-curvature="0" /><path
         d="M 2019.95,64.5703 1963.26,7.87891"
         style="fill:none;stroke:#000000;stroke-width:4.72424984;stroke-linecap:butt;stroke-linejoin:miter;stroke-miterlimit:10;stroke-dasharray:none;stroke-opacity:1"
         id="path36"
         inkscape:connector-curvature="0" /><path
         d="M 1963.26,64.5703 1906.57,7.87891"
         style="fill:none;stroke:#000000;stroke-width:4.72424984;stroke-linecap:butt;stroke-linejoin:miter;stroke-miterlimit:10;stroke-dasharray:none;stroke-opacity:1"
         id="path38"
         inkscape:connector-curvature="0" /><path
         d="M 1906.57,64.5703 1849.88,7.87891"
         style="fill:none;stroke:#000000;stroke-width:4.72424984;stroke-linecap:butt;stroke-linejoin:miter;stroke-miterlimit:10;stroke-dasharray:none;stroke-opacity:1"
         id="path40"
         inkscape:connector-curvature="0" /><g
         id="g42"><g
           id="g44"
           clip-path="url(#clipPath46)"><path
             d="m 26.3203,234.645 0,283.453"
             style="fill:none;stroke:#000000;stroke-width:4.72424984;stroke-linecap:butt;stroke-linejoin:miter;stroke-miterlimit:10;stroke-dasharray:none;stroke-opacity:1"
             id="path50"
             inkscape:connector-curvature="0" /></g></g><path
         d="M 45.2148,438.102 26.3203,508.648 7.42188,438.102 26.3203,451.957 45.2148,438.102"
         style="fill:#000000;fill-opacity:1;fill-rule:evenodd;stroke:none"
         id="path52"
         inkscape:connector-curvature="0" /><path
         d="M 45.2148,438.102 26.3203,508.648 7.42188,438.102 26.3203,451.957 45.2148,438.102 Z"
         style="fill:none;stroke:#000000;stroke-width:4.72424984;stroke-linecap:butt;stroke-linejoin:miter;stroke-miterlimit:10;stroke-dasharray:none;stroke-opacity:1"
         id="path54"
         inkscape:connector-curvature="0" /><g
         id="g56"><g
           id="g58"
           clip-path="url(#clipPath60)"><path
             d="m 26.3203,234.645 283.4527,0"
             style="fill:none;stroke:#000000;stroke-width:4.72424984;stroke-linecap:butt;stroke-linejoin:miter;stroke-miterlimit:10;stroke-dasharray:none;stroke-opacity:1"
             id="path64"
             inkscape:connector-curvature="0" /></g></g><path
         d="m 229.148,215.746 71.176,18.899 -71.176,18.894 14.485,-18.894 -14.485,-18.899"
         style="fill:#000000;fill-opacity:1;fill-rule:evenodd;stroke:none"
         id="path66"
         inkscape:connector-curvature="0" /><path
         d="m 229.148,215.746 71.176,18.899 -71.176,18.894 14.485,-18.894 -14.485,-18.899 z"
         style="fill:none;stroke:#000000;stroke-width:4.72424984;stroke-linecap:butt;stroke-linejoin:miter;stroke-miterlimit:10;stroke-dasharray:none;stroke-opacity:1"
         id="path68"
         inkscape:connector-curvature="0" /><g
         id="g70"
         transform="scale(10,10)"><text
           transform="matrix(1,0,0,-1,8.63555,46.1406)"
           style="font-variant:normal;font-weight:normal;font-size:9.99965954px;font-family:'Times New Roman';-inkscape-font-specification:Times-Roman;writing-mode:lr-tb;fill:#000000;fill-opacity:1;fill-rule:nonzero;stroke:none"
           id="text72"><tspan
             x="0"
             y="0"
             id="tspan74">y</tspan><tspan
             x="17.007401"
             y="17.007"
             id="tspan76">x</tspan></text>
</g><path
         d="m 464.098,225.824 c 0,-16.347 -13.254,-29.605 -29.602,-29.605 -16.348,0 -29.605,13.258 -29.605,29.605 0,16.348 13.257,29.606 29.605,29.606 16.348,0 29.602,-13.258 29.602,-29.606"
         style="fill:#ffffff;fill-opacity:1;fill-rule:evenodd;stroke:none"
         id="path78"
         inkscape:connector-curvature="0" /><path
         d="m 464.098,225.824 c 0,-16.347 -13.254,-29.605 -29.602,-29.605 -16.348,0 -29.605,13.258 -29.605,29.605 0,16.348 13.257,29.606 29.605,29.606 16.348,0 29.602,-13.258 29.602,-29.606 z"
         style="fill:none;stroke:#000000;stroke-width:4.72424984;stroke-linecap:butt;stroke-linejoin:miter;stroke-miterlimit:10;stroke-dasharray:none;stroke-opacity:1"
         id="path80"
         inkscape:connector-curvature="0" /><path
         d="m 1994.76,216.375 c 0,-16.348 -13.26,-29.605 -29.61,-29.605 -16.35,0 -29.6,13.257 -29.6,29.605 0,16.348 13.25,29.605 29.6,29.605 16.35,0 29.61,-13.257 29.61,-29.605"
         style="fill:#ffffff;fill-opacity:1;fill-rule:evenodd;stroke:none"
         id="path82"
         inkscape:connector-curvature="0" /><path
         d="m 1994.76,216.375 c 0,-16.348 -13.26,-29.605 -29.61,-29.605 -16.35,0 -29.6,13.257 -29.6,29.605 0,16.348 13.25,29.605 29.6,29.605 16.35,0 29.61,-13.257 29.61,-29.605 z"
         style="fill:none;stroke:#000000;stroke-width:4.72424984;stroke-linecap:butt;stroke-linejoin:miter;stroke-miterlimit:10;stroke-dasharray:none;stroke-opacity:1"
         id="path84"
         inkscape:connector-curvature="0" /><path
         d="m 1737.13,1329.41 c 0,-16.35 -13.26,-29.61 -29.61,-29.61 -16.34,0 -29.6,13.26 -29.6,29.61 0,16.35 13.26,29.61 29.6,29.61 16.35,0 29.61,-13.26 29.61,-29.61"
         style="fill:#ffffff;fill-opacity:1;fill-rule:evenodd;stroke:none"
         id="path86"
         inkscape:connector-curvature="0" /><path
         d="m 1737.13,1329.41 c 0,-16.35 -13.26,-29.61 -29.61,-29.61 -16.34,0 -29.6,13.26 -29.6,29.61 0,16.35 13.26,29.61 29.6,29.61 16.35,0 29.61,-13.26 29.61,-29.61 z"
         style="fill:none;stroke:#000000;stroke-width:4.72424984;stroke-linecap:butt;stroke-linejoin:miter;stroke-miterlimit:10;stroke-dasharray:none;stroke-opacity:1"
         id="path88"
         inkscape:connector-curvature="0" /><path
         d="m 926.445,1186.42 c 0,-16.35 -13.257,-29.6 -29.605,-29.6 -16.348,0 -29.606,13.25 -29.606,29.6 0,16.35 13.258,29.61 29.606,29.61 16.348,0 29.605,-13.26 29.605,-29.61"
         style="fill:#ffffff;fill-opacity:1;fill-rule:evenodd;stroke:none"
         id="path90"
         inkscape:connector-curvature="0" /><path
         d="m 926.445,1186.42 c 0,-16.35 -13.257,-29.6 -29.605,-29.6 -16.348,0 -29.606,13.25 -29.606,29.6 0,16.35 13.258,29.61 29.606,29.61 16.348,0 29.605,-13.26 29.605,-29.61 z"
         style="fill:none;stroke:#000000;stroke-width:4.72424984;stroke-linecap:butt;stroke-linejoin:miter;stroke-miterlimit:10;stroke-dasharray:none;stroke-opacity:1"
         id="path92"
         inkscape:connector-curvature="0" /><path
         d="m 768.34,442.512 c 0,-21.914 -10.438,-39.684 -23.305,-39.684 -12.867,0 -23.305,17.77 -23.305,39.684 0,21.914 10.438,39.683 23.305,39.683 12.867,0 23.305,-17.769 23.305,-39.683 z"
         style="fill:none;stroke:#000000;stroke-width:4.72424984;stroke-linecap:butt;stroke-linejoin:miter;stroke-miterlimit:10;stroke-dasharray:none;stroke-opacity:1"
         id="path94"
         inkscape:connector-curvature="0" /><path
         d="m 721.73,440.621 49.762,-1.262"
         style="fill:none;stroke:#000000;stroke-width:4.72424984;stroke-linecap:butt;stroke-linejoin:miter;stroke-miterlimit:10;stroke-dasharray:none;stroke-opacity:1"
         id="path96"
         inkscape:connector-curvature="0" /><path
         d="m 2106.88,388.34 c 0,-21.914 -10.44,-39.684 -23.31,-39.684 -12.87,0 -23.3,17.77 -23.3,39.684 0,21.914 10.43,39.683 23.3,39.683 12.87,0 23.31,-17.769 23.31,-39.683 z"
         style="fill:none;stroke:#000000;stroke-width:4.72424984;stroke-linecap:butt;stroke-linejoin:miter;stroke-miterlimit:10;stroke-dasharray:none;stroke-opacity:1"
         id="path98"
         inkscape:connector-curvature="0" /><path
         d="m 2060.27,386.449 49.76,-1.261"
         style="fill:none;stroke:#000000;stroke-width:4.72424984;stroke-linecap:butt;stroke-linejoin:miter;stroke-miterlimit:10;stroke-dasharray:none;stroke-opacity:1"
         id="path100"
         inkscape:connector-curvature="0" /><path
         d="m 1604.22,1249.41 c 0,-21.91 -10.44,-39.68 -23.31,-39.68 -12.87,0 -23.3,17.77 -23.3,39.68 0,21.92 10.43,39.69 23.3,39.69 12.87,0 23.31,-17.77 23.31,-39.69 z"
         style="fill:none;stroke:#000000;stroke-width:4.72424984;stroke-linecap:butt;stroke-linejoin:miter;stroke-miterlimit:10;stroke-dasharray:none;stroke-opacity:1"
         id="path102"
         inkscape:connector-curvature="0" /><path
         d="m 1557.61,1247.52 49.76,-1.26"
         style="fill:none;stroke:#000000;stroke-width:4.72424984;stroke-linecap:butt;stroke-linejoin:miter;stroke-miterlimit:10;stroke-dasharray:none;stroke-opacity:1"
         id="path104"
         inkscape:connector-curvature="0" /><g
         id="g106"><g
           id="g108"
           clip-path="url(#clipPath110)"><path
             d="m 854.656,228.316 c 14.903,34.36 22.594,71.422 22.594,108.875 0,143.172 -110.375,262.145 -253.145,272.86"
             style="fill:none;stroke:#000000;stroke-width:4.72424984;stroke-linecap:butt;stroke-linejoin:miter;stroke-miterlimit:10;stroke-dasharray:none;stroke-opacity:1"
             id="path114"
             inkscape:connector-curvature="0" /></g></g><path
         d="m 711.648,608.805 -77.476,-1.262 68.66,-35.273 8.816,36.535"
         style="fill:#000000;fill-opacity:1;fill-rule:evenodd;stroke:none"
         id="path116"
         inkscape:connector-curvature="0" /><path
         d="m 711.648,608.805 -77.476,-1.262 68.66,-35.273 8.816,36.535 z"
         style="fill:none;stroke:#000000;stroke-width:4.72424984;stroke-linecap:butt;stroke-linejoin:miter;stroke-miterlimit:10;stroke-dasharray:none;stroke-opacity:1"
         id="path118"
         inkscape:connector-curvature="0" /><g
         id="g120"><g
           id="g122"
           clip-path="url(#clipPath124)"><path
             d="m 2217.15,215.723 c 2.9,16.984 4.37,34.191 4.37,51.422 0,168.339 -136.47,304.808 -304.81,304.808 -8,0 -16,-0.316 -23.98,-0.941"
             style="fill:none;stroke:#000000;stroke-width:4.72424984;stroke-linecap:butt;stroke-linejoin:miter;stroke-miterlimit:10;stroke-dasharray:none;stroke-opacity:1"
             id="path128"
             inkscape:connector-curvature="0" /></g></g><path
         d="m 1979.01,584.867 -76.22,-14.488 74.33,-23.305 1.89,37.793"
         style="fill:#000000;fill-opacity:1;fill-rule:evenodd;stroke:none"
         id="path130"
         inkscape:connector-curvature="0" /><path
         d="m 1979.01,584.867 -76.22,-14.488 74.33,-23.305 1.89,37.793 z"
         style="fill:none;stroke:#000000;stroke-width:4.72424984;stroke-linecap:butt;stroke-linejoin:miter;stroke-miterlimit:10;stroke-dasharray:none;stroke-opacity:1"
         id="path132"
         inkscape:connector-curvature="0" /><g
         id="g134"><g
           id="g136"
           clip-path="url(#clipPath138)"><path
             d="m 1686.1,1191.47 c 3.38,9.7 5.11,19.9 5.11,30.16 0,44.2 -31.55,82.11 -75.01,90.13"
             style="fill:none;stroke:#000000;stroke-width:4.72424984;stroke-linecap:butt;stroke-linejoin:miter;stroke-miterlimit:10;stroke-dasharray:none;stroke-opacity:1"
             id="path142"
             inkscape:connector-curvature="0" /></g></g><path
         d="m 1694.93,1273.98 -70.55,31.49 47.24,-61.1 23.31,29.61"
         style="fill:#000000;fill-opacity:1;fill-rule:evenodd;stroke:none"
         id="path144"
         inkscape:connector-curvature="0" /><path
         d="m 1694.93,1273.98 -70.55,31.49 47.24,-61.1 23.31,29.61 z"
         style="fill:none;stroke:#000000;stroke-width:4.72424984;stroke-linecap:butt;stroke-linejoin:miter;stroke-miterlimit:10;stroke-dasharray:none;stroke-opacity:1"
         id="path146"
         inkscape:connector-curvature="0" /><path
         d="m 462.84,223.934 1479.64,0"
         style="fill:none;stroke:#000000;stroke-width:18.89699936;stroke-linecap:butt;stroke-linejoin:miter;stroke-miterlimit:10;stroke-dasharray:none;stroke-opacity:1"
         id="path148"
         inkscape:connector-curvature="0" /><path
         d="M 438.902,249.133 888.652,1160.6"
         style="fill:none;stroke:#000000;stroke-width:18.89699936;stroke-linecap:butt;stroke-linejoin:miter;stroke-miterlimit:10;stroke-dasharray:none;stroke-opacity:1"
         id="path150"
         inkscape:connector-curvature="0" /><path
         d="m 922.035,1198.39 764.075,125.98"
         style="fill:none;stroke:#000000;stroke-width:18.89699936;stroke-linecap:butt;stroke-linejoin:miter;stroke-miterlimit:10;stroke-dasharray:none;stroke-opacity:1"
         id="path152"
         inkscape:connector-curvature="0" /><path
         d="M 1728.31,1302.95 1963.26,240.941"
         style="fill:none;stroke:#000000;stroke-width:18.89699936;stroke-linecap:butt;stroke-linejoin:miter;stroke-miterlimit:10;stroke-dasharray:none;stroke-opacity:1"
         id="path154"
         inkscape:connector-curvature="0" /><path
         d="m 1666.58,218.266 692.89,0"
         style="fill:none;stroke:#000000;stroke-width:4.72424984;stroke-linecap:butt;stroke-linejoin:miter;stroke-miterlimit:10;stroke-dasharray:37.794;stroke-dashoffset:0;stroke-opacity:1"
         id="path156"
         inkscape:connector-curvature="0" /><path
         d="m 744.406,1188.31 1159.644,-2.52"
         style="fill:none;stroke:#000000;stroke-width:4.72424984;stroke-linecap:butt;stroke-linejoin:miter;stroke-miterlimit:10;stroke-dasharray:37.794;stroke-dashoffset:0;stroke-opacity:1"
         id="path158"
         inkscape:connector-curvature="0" /><g
         id="g160"
         transform="scale(10,10)"><text
           transform="matrix(1,0,0,-1,77.9051,38.7078)"
           style="font-variant:normal;font-weight:normal;font-size:5.99980021px;font-family:'Times New Roman';-inkscape-font-specification:Times-Roman;writing-mode:lr-tb;fill:#000000;fill-opacity:1;fill-rule:nonzero;stroke:none"
           id="text162"><tspan
             x="0"
             y="0"
             id="tspan164">1</tspan><tspan
             x="133.854"
             y="5.4171901"
             id="tspan166">3</tspan><tspan
             x="83.587997"
             y="-80.690208"
             id="tspan168">2</tspan></text>
<text
           transform="matrix(1,0,0,-1,119.9197,11.49601)"
           style="font-variant:normal;font-weight:normal;font-size:9.99965954px;font-family:'Times New Roman';-inkscape-font-specification:Times-Roman;writing-mode:lr-tb;fill:#000000;fill-opacity:1;fill-rule:nonzero;stroke:none"
           id="text170"><tspan
             x="0"
             y="0"
             id="tspan172">L</tspan></text>
<text
           transform="matrix(1,0,0,-1,127.10056,10.23624)"
           style="font-variant:normal;font-weight:normal;font-size:5.99980021px;font-family:'Times New Roman';-inkscape-font-specification:Times-Roman;writing-mode:lr-tb;fill:#000000;fill-opacity:1;fill-rule:nonzero;stroke:none"
           id="text174"><tspan
             x="0"
             y="0"
             id="tspan176">1</tspan></text>
<text
           transform="matrix(1,0,0,-1,50.19006,73.22644)"
           style="font-variant:normal;font-weight:normal;font-size:9.99965954px;font-family:'Times New Roman';-inkscape-font-specification:Times-Roman;writing-mode:lr-tb;fill:#000000;fill-opacity:1;fill-rule:nonzero;stroke:none"
           id="text178"><tspan
             x="0"
             y="0"
             id="tspan180">L</tspan></text>
<text
           transform="matrix(1,0,0,-1,57.37092,71.96667)"
           style="font-variant:normal;font-weight:normal;font-size:5.99980021px;font-family:'Times New Roman';-inkscape-font-specification:Times-Roman;writing-mode:lr-tb;fill:#000000;fill-opacity:1;fill-rule:nonzero;stroke:none"
           id="text182"><tspan
             x="0"
             y="0"
             id="tspan184">2</tspan></text>
<text
           transform="matrix(1,0,0,-1,121.17952,132.87797)"
           style="font-variant:normal;font-weight:normal;font-size:9.99965954px;font-family:'Times New Roman';-inkscape-font-specification:Times-Roman;writing-mode:lr-tb;fill:#000000;fill-opacity:1;fill-rule:nonzero;stroke:none"
           id="text186"><tspan
             x="0"
             y="0"
             id="tspan188">L</tspan></text>
<text
           transform="matrix(1,0,0,-1,128.36038,131.61781)"
           style="font-variant:normal;font-weight:normal;font-size:5.99980021px;font-family:'Times New Roman';-inkscape-font-specification:Times-Roman;writing-mode:lr-tb;fill:#000000;fill-opacity:1;fill-rule:nonzero;stroke:none"
           id="text190"><tspan
             x="0"
             y="0"
             id="tspan192">3</tspan></text>
<text
           transform="matrix(1,0,0,-1,189.58698,86.26511)"
           style="font-variant:normal;font-weight:normal;font-size:9.99965954px;font-family:'Times New Roman';-inkscape-font-specification:Times-Roman;writing-mode:lr-tb;fill:#000000;fill-opacity:1;fill-rule:nonzero;stroke:none"
           id="text194"><tspan
             x="0"
             y="0"
             id="tspan196">L</tspan></text>
<text
           transform="matrix(1,0,0,-1,196.76784,85.00534)"
           style="font-variant:normal;font-weight:normal;font-size:5.99980021px;font-family:'Times New Roman';-inkscape-font-specification:Times-Roman;writing-mode:lr-tb;fill:#000000;fill-opacity:1;fill-rule:nonzero;stroke:none"
           id="text198"><tspan
             x="0"
             y="0"
             id="tspan200">4</tspan></text>
<text
           transform="matrix(1,0,0,-1,86.72384,126.13774)"
           style="font-variant:normal;font-weight:normal;font-size:9.99965954px;font-family:'Times New Roman';-inkscape-font-specification:Times-Roman;writing-mode:lr-tb;fill:#000000;fill-opacity:1;fill-rule:nonzero;stroke:none"
           id="text202"><tspan
             x="0"
             y="0"
             id="tspan204">y</tspan></text>
<text
           transform="matrix(1,0,0,-1,93.9047,124.87797)"
           style="font-variant:normal;font-weight:normal;font-size:5.99980021px;font-family:'Times New Roman';-inkscape-font-specification:Times-Roman;writing-mode:lr-tb;fill:#000000;fill-opacity:1;fill-rule:nonzero;stroke:none"
           id="text206"><tspan
             x="0"
             y="0"
             id="tspan208">1</tspan></text>
<text
           transform="matrix(1,0,0,-1,73.307,125.76)"
           style="font-variant:normal;font-weight:normal;font-size:9.99965954px;font-family:'Times New Roman';-inkscape-font-specification:Times-Roman;writing-mode:lr-tb;fill:#000000;fill-opacity:1;fill-rule:nonzero;stroke:none"
           id="text210"><tspan
             x="0"
             y="0"
             id="tspan212">x</tspan></text>
<text
           transform="matrix(1,0,0,-1,80.48786,124.50023)"
           style="font-variant:normal;font-weight:normal;font-size:5.99980021px;font-family:'Times New Roman';-inkscape-font-specification:Times-Roman;writing-mode:lr-tb;fill:#000000;fill-opacity:1;fill-rule:nonzero;stroke:none"
           id="text214"><tspan
             x="0"
             y="0"
             id="tspan216">1</tspan></text>
<text
           transform="matrix(1,0,0,-1,160.23316,139.61783)"
           style="font-variant:normal;font-weight:normal;font-size:9.99965954px;font-family:'Times New Roman';-inkscape-font-specification:Times-Roman;writing-mode:lr-tb;fill:#000000;fill-opacity:1;fill-rule:nonzero;stroke:none"
           id="text218"><tspan
             x="0"
             y="0"
             id="tspan220">x</tspan></text>
<text
           transform="matrix(1,0,0,-1,167.41402,138.35806)"
           style="font-variant:normal;font-weight:normal;font-size:5.99980021px;font-family:'Times New Roman';-inkscape-font-specification:Times-Roman;writing-mode:lr-tb;fill:#000000;fill-opacity:1;fill-rule:nonzero;stroke:none"
           id="text222"><tspan
             x="0"
             y="0"
             id="tspan224">2</tspan></text>
<text
           transform="matrix(1,0,0,-1,174.53199,139.80689)"
           style="font-variant:normal;font-weight:normal;font-size:9.99965954px;font-family:'Times New Roman';-inkscape-font-specification:Times-Roman;writing-mode:lr-tb;fill:#000000;fill-opacity:1;fill-rule:nonzero;stroke:none"
           id="text226"><tspan
             x="0"
             y="0"
             id="tspan228">y</tspan></text>
<text
           transform="matrix(1,0,0,-1,181.71285,138.54673)"
           style="font-variant:normal;font-weight:normal;font-size:5.99980021px;font-family:'Times New Roman';-inkscape-font-specification:Times-Roman;writing-mode:lr-tb;fill:#000000;fill-opacity:1;fill-rule:nonzero;stroke:none"
           id="text230"><tspan
             x="0"
             y="0"
             id="tspan232">2</tspan></text>
</g></g></g></svg>