<?xml version="1.0" encoding="UTF-8" standalone="no"?>
<!-- Created with Inkscape (http://www.inkscape.org/) -->

<svg
   xmlns:osb="http://www.openswatchbook.org/uri/2009/osb"
   xmlns:dc="http://purl.org/dc/elements/1.1/"
   xmlns:cc="http://creativecommons.org/ns#"
   xmlns:rdf="http://www.w3.org/1999/02/22-rdf-syntax-ns#"
   xmlns:svg="http://www.w3.org/2000/svg"
   xmlns="http://www.w3.org/2000/svg"
   xmlns:sodipodi="http://sodipodi.sourceforge.net/DTD/sodipodi-0.dtd"
   xmlns:inkscape="http://www.inkscape.org/namespaces/inkscape"
   width="264.76886"
   height="71.556061"
   id="svg2"
   version="1.1"
   inkscape:version="0.91 r13725"
   sodipodi:docname="list_set_get.svg">
  <defs
     id="defs4">
    <linearGradient
       id="linearGradient5798"
       osb:paint="solid">
      <stop
         style="stop-color:#000000;stop-opacity:1;"
         offset="0"
         id="stop5800" />
    </linearGradient>
    <marker
       inkscape:stockid="Arrow2Lend"
       orient="auto"
       refY="0"
       refX="0"
       id="Arrow2Lend"
       style="overflow:visible">
      <path
         id="path3788"
         style="fill-rule:evenodd;stroke-width:0.625;stroke-linejoin:round"
         d="M 8.7185878,4.0337352 -2.2072895,0.01601326 8.7185884,-4.0017078 c -1.7454984,2.3720609 -1.7354408,5.6174519 -6e-7,8.035443 z"
         transform="matrix(-1.1,0,0,-1.1,-1.1,0)"
         inkscape:connector-curvature="0" />
    </marker>
  </defs>
  <sodipodi:namedview
     id="base"
     pagecolor="#ffffff"
     bordercolor="#666666"
     borderopacity="1.0"
     inkscape:pageopacity="0.0"
     inkscape:pageshadow="2"
     inkscape:zoom="2.8"
     inkscape:cx="96.153334"
     inkscape:cy="12.89602"
     inkscape:document-units="px"
     inkscape:current-layer="layer1"
     showgrid="false"
     inkscape:window-width="1865"
     inkscape:window-height="1056"
     inkscape:window-x="1415"
     inkscape:window-y="24"
     inkscape:window-maximized="1"
     fit-margin-top="5"
     fit-margin-right="5"
     fit-margin-bottom="5"
     fit-margin-left="5" />
  <metadata
     id="metadata7">
    <rdf:RDF>
      <cc:Work
         rdf:about="">
        <dc:format>image/svg+xml</dc:format>
        <dc:type
           rdf:resource="http://purl.org/dc/dcmitype/StillImage" />
        <dc:title />
      </cc:Work>
    </rdf:RDF>
  </metadata>
  <g
     inkscape:label="Layer 1"
     inkscape:groupmode="layer"
     id="layer1"
     transform="translate(-22.469899,-10.334408)">
    <text
       xml:space="preserve"
       style="font-style:normal;font-variant:normal;font-weight:normal;font-stretch:normal;font-size:31.25px;line-height:125%;font-family:'Liberation Sans';-inkscape-font-specification:'Liberation Sans, Normal';text-align:start;letter-spacing:0px;word-spacing:0px;writing-mode:lr-tb;text-anchor:start;fill:#000000;fill-opacity:1;stroke:none"
       x="30.010969"
       y="37.978451"
       id="text2985"
       sodipodi:linespacing="125%"><tspan
         sodipodi:role="line"
         id="tspan2987"
         x="30.010969"
         y="37.978451">foo[1] =  foo[2] + 8</tspan></text>
    <text
       xml:space="preserve"
       style="font-style:italic;font-variant:normal;font-weight:normal;font-stretch:normal;font-size:18.75px;line-height:125%;font-family:'Liberation Sans';-inkscape-font-specification:'Liberation Sans, Italic';text-align:start;letter-spacing:0px;word-spacing:0px;writing-mode:lr-tb;text-anchor:start;fill:#000000;fill-opacity:1;stroke:none"
       x="37.267227"
       y="71.604401"
       id="text5119"
       sodipodi:linespacing="125%"><tspan
         sodipodi:role="line"
         id="tspan5121"
         x="37.267227"
         y="71.604401"
         style="font-style:italic;font-variant:normal;font-weight:normal;font-stretch:normal;font-size:18.75px;line-height:125%;font-family:'Liberation Sans';-inkscape-font-specification:'Liberation Sans, Italic';text-align:start;writing-mode:lr-tb;text-anchor:start">set item</tspan></text>
    <text
       xml:space="preserve"
       style="font-style:italic;font-variant:normal;font-weight:normal;font-stretch:normal;font-size:18.75px;line-height:125%;font-family:'Liberation Sans';-inkscape-font-specification:'Liberation Sans, Italic';text-align:start;letter-spacing:0px;word-spacing:0px;writing-mode:lr-tb;text-anchor:start;fill:#000000;fill-opacity:1;stroke:none"
       x="158.86247"
       y="72.999481"
       id="text5119-7"
       sodipodi:linespacing="125%"><tspan
         sodipodi:role="line"
         id="tspan5121-0"
         x="158.86247"
         y="72.999481"
         style="font-style:italic;font-variant:normal;font-weight:normal;font-stretch:normal;font-size:18.75px;line-height:125%;font-family:'Liberation Sans';-inkscape-font-specification:'Liberation Sans, Italic';text-align:start;writing-mode:lr-tb;text-anchor:start">get item</tspan></text>
    <path
       id="use8"
       d="m 112.08488,42.439859 0,0.992906 c 0,1.191494 0,1.985813 -0.44829,2.780132 -0.4483,0.794329 -1.79317,1.588648 -3.58632,2.1844 -1.79317,0.595732 -3.58634,0.794319 -5.82779,0.992897 -2.241456,0.198587 -6.276066,0.198587 -11.655555,0.198587 -4.034627,0 -6.724372,0 -8.965824,0.198577 -2.241453,0.198588 -4.482911,0.595752 -5.827785,1.191484 -1.34487,0.595742 -2.241448,1.390081 -2.241448,2.581565 l -7.172656,0 c 0,-1.191484 -0.896581,-1.985823 -2.241454,-2.581565 -1.344871,-0.595732 -3.586326,-0.992896 -5.82778,-1.191484 -2.241455,-0.198577 -4.9312,-0.198577 -8.965816,-0.198577 -5.379491,0 -9.414107,0 -11.655561,-0.198587 -2.241455,-0.198578 -4.034617,-0.397165 -5.827782,-0.992897 -1.793162,-0.595752 -3.138034,-1.390071 -3.586326,-2.1844 -0.448291,-0.794319 -0.448291,-1.588638 -0.448291,-2.780132 l 0,-0.992906"
       inkscape:connector-curvature="0"
       style="fill:none;fill-opacity:1;stroke:#000000;stroke-width:0.67260402;stroke-miterlimit:4;stroke-dasharray:none;stroke-opacity:1"
       sodipodi:nodetypes="csssssssccsssssssc" />
    <path
       id="use8-0"
       d="m 233.35794,43.890656 0,0.993264 c 0,1.191922 0,1.986527 -0.44073,2.781132 -0.44072,0.794615 -1.76291,1.58923 -3.52582,2.185186 -1.76291,0.595956 -3.52584,0.794615 -5.72947,0.993253 -2.20366,0.198659 -6.17021,0.198659 -11.45895,0.198659 -3.96656,0 -6.61093,0 -8.81458,0.198659 -2.20364,0.198649 -4.40729,0.595956 -5.72947,1.191912 -1.32219,0.595956 -2.20364,1.390571 -2.20364,2.582484 l -7.05166,0 c 0,-1.191913 -0.88146,-1.986528 -2.20364,-2.582484 -1.32219,-0.595956 -3.52583,-0.993263 -5.72947,-1.191912 -2.20365,-0.198659 -4.84802,-0.198659 -8.81458,-0.198659 -5.28874,0 -9.2553,0 -11.45894,-0.198659 -2.20364,-0.198638 -3.96656,-0.397297 -5.72948,-0.993253 -1.76291,-0.595956 -3.08509,-1.390571 -3.52582,-2.185186 -0.44074,-0.794605 -0.44074,-1.58921 -0.44074,-2.781132 l 0,-0.993264"
       inkscape:connector-curvature="0"
       style="fill:none;fill-opacity:1;stroke:#000000;stroke-width:0.66702682;stroke-miterlimit:4;stroke-dasharray:none;stroke-opacity:1"
       sodipodi:nodetypes="csssssssccsssssssc" />
  </g>
</svg>
